<svg width="941" height="218" viewBox="0 0 941 218" fill="none" xmlns="http://www.w3.org/2000/svg">
<path d="M0 23.1497C0 10.3645 10.3645 0 23.1497 0H142.757C155.542 0 165.906 10.3645 165.906 23.1497V190.985C165.906 203.77 155.542 214.135 142.757 214.135H23.1497C10.3645 214.135 0 203.77 0 190.985V23.1497Z" fill="#3481E5"/>
<path d="M440.57 150.464C446.111 150.464 451.599 149.373 456.719 147.252C461.839 145.131 466.491 142.023 470.41 138.104C474.328 134.186 477.437 129.533 479.557 124.414C481.678 119.294 482.77 113.806 482.77 108.264C482.77 102.723 481.678 97.235 479.557 92.1151C477.437 86.9951 474.328 82.343 470.41 78.4244C466.491 74.5058 461.839 71.3974 456.719 69.2766C451.599 67.1559 446.111 66.0643 440.57 66.0643C429.378 66.0643 418.644 70.5104 410.73 78.4244C402.816 86.3384 398.37 97.0722 398.37 108.264C398.37 119.456 402.816 130.19 410.73 138.104C418.644 146.018 429.378 150.464 440.57 150.464ZM506.884 108.264C506.885 118.312 510.471 128.031 516.998 135.67C523.525 143.31 532.563 148.371 542.488 149.941C552.413 151.512 562.572 149.49 571.139 144.238C579.705 138.987 586.117 130.851 589.221 121.294C592.324 111.737 591.916 101.387 588.069 92.104C584.222 82.8214 577.189 75.2161 568.235 70.656C559.281 66.0959 548.994 64.8803 539.224 67.228C529.454 69.5756 520.843 75.3324 514.938 83.4628C511.225 73.3076 508.122 67.5754 502.869 60.711C512.596 51.2588 524.988 45.0168 538.374 42.8266C551.759 40.6364 565.495 42.6033 577.727 48.4622C589.96 54.3211 600.102 63.7901 606.786 75.5925C613.47 87.3948 616.374 100.963 615.106 114.467C613.839 127.971 608.461 140.762 599.698 151.115C590.935 161.467 579.208 168.884 566.099 172.364C552.99 175.845 539.128 175.222 526.384 170.579C513.64 165.937 502.626 157.498 494.827 146.401C485.723 159.356 472.284 168.626 456.939 172.535C441.595 176.444 425.359 174.733 411.166 167.712C396.974 160.691 385.762 148.824 379.558 134.256C373.353 119.688 372.567 103.38 377.34 88.2827C382.113 73.185 392.131 60.2936 405.582 51.9395C419.033 43.5854 435.03 40.32 450.679 42.7338C466.328 45.1477 480.597 53.0813 490.906 65.1003C501.214 77.1192 506.882 92.4301 506.884 108.264Z" fill="#2F2F2F"/>
<path d="M246.766 174.587C244.104 174.587 241.812 173.7 239.889 171.925C238.114 170.002 237.227 167.71 237.227 165.048V25.5032C237.227 22.841 238.114 20.6225 239.889 18.8477C241.812 16.925 244.104 15.9636 246.766 15.9636H290.249C301.638 15.9636 311.991 18.6998 321.308 24.1721C330.626 29.6445 337.947 37.1135 343.272 46.5791C348.744 56.0448 351.48 66.4718 351.48 77.8602V112.691C351.48 124.079 348.744 134.506 343.272 143.972C337.947 153.438 330.626 160.907 321.308 166.379C311.991 171.851 301.638 174.587 290.249 174.587H246.766ZM289.14 148.631C295.5 148.631 301.342 147.078 306.666 143.972C312.139 140.718 316.428 136.429 319.534 131.104C322.787 125.632 324.414 119.642 324.414 113.135V77.1946C324.414 70.8349 322.787 64.9928 319.534 59.6684C316.428 54.196 312.139 49.9069 306.666 46.801C301.342 43.5472 295.5 41.9202 289.14 41.9202H264.293V148.631H289.14Z" fill="#2F2F2F"/>
<path d="M641.738 174.587C640.407 174.587 639.298 174.144 638.41 173.256C637.523 172.369 637.079 171.26 637.079 169.928V9.3081C637.079 7.977 637.523 6.86774 638.41 5.98033C639.298 5.09293 640.407 4.64923 641.738 4.64923H659.042C660.374 4.64923 661.483 5.09293 662.37 5.98033C663.258 6.86774 663.701 7.977 663.701 9.3081V58.3372C667.99 54.0481 672.871 50.7204 678.344 48.3539C683.816 45.8396 689.436 44.5825 695.204 44.5825C704.374 44.5825 712.435 46.5791 719.386 50.5725C726.485 54.4179 731.958 59.8902 735.803 66.9895C739.648 73.9408 741.571 82.0014 741.571 91.1712V169.928C741.571 171.26 741.128 172.369 740.24 173.256C739.353 174.144 738.243 174.587 736.912 174.587H719.608C718.277 174.587 717.168 174.144 716.28 173.256C715.393 172.369 714.949 171.26 714.949 169.928V94.499C714.949 86.6603 712.952 80.6703 708.959 76.5291C704.966 72.2399 699.345 70.0954 692.098 70.0954C683.372 70.0954 676.421 72.9794 671.244 78.7476C666.216 84.3678 663.701 92.1326 663.701 102.042V169.928C663.701 171.26 663.258 172.369 662.37 173.256C661.483 174.144 660.374 174.587 659.042 174.587H641.738Z" fill="#2F2F2F"/>
<path d="M777.553 174.587C776.665 174.587 775.926 174.292 775.334 173.7C774.743 173.108 774.447 172.369 774.447 171.481V65.4365H757.586C756.699 65.4365 755.959 65.1407 755.368 64.5491C754.776 63.9575 754.48 63.218 754.48 62.3306V52.1254C754.48 51.238 754.776 50.4985 755.368 49.9069C755.959 49.3153 756.699 49.0195 757.586 49.0195H774.447V40.1454C774.447 30.384 777.479 22.3234 783.543 15.9636C789.607 9.456 797.963 6.20218 808.612 6.20218H826.36C827.247 6.20218 827.987 6.49798 828.579 7.08958C829.17 7.68119 829.466 8.42069 829.466 9.3081V18.8477C829.466 19.7351 829.17 20.4746 828.579 21.0662C827.987 21.6578 827.247 21.9536 826.36 21.9536H808.39C803.361 21.9536 799.294 23.5805 796.188 26.8344C793.23 29.9403 791.751 34.0815 791.751 39.258V49.0195H821.923C822.81 49.0195 823.55 49.3153 824.141 49.9069C824.733 50.4985 825.029 51.238 825.029 52.1254V62.3306C825.029 63.218 824.733 63.9575 824.141 64.5491C823.55 65.1407 822.81 65.4365 821.923 65.4365H791.751V171.481C791.751 172.369 791.455 173.108 790.864 173.7C790.272 174.292 789.533 174.587 788.645 174.587H777.553Z" fill="#2F2F2F"/>
<path d="M871.089 217.405C869.758 217.405 868.723 216.961 867.983 216.074C867.244 215.186 867.096 214.077 867.539 212.746L880.407 175.918L836.258 53.9002C836.111 53.6044 836.037 53.0868 836.037 52.3473C836.037 51.4599 836.332 50.7204 836.924 50.1287C837.663 49.3892 838.551 49.0195 839.586 49.0195H849.791C850.679 49.0195 851.492 49.3153 852.232 49.9069C853.119 50.3506 853.711 51.0162 854.007 51.9036L888.837 151.293L923.446 51.9036C923.742 51.0162 924.259 50.3506 924.999 49.9069C925.886 49.3153 926.774 49.0195 927.661 49.0195H937.423C938.754 49.0195 939.715 49.5371 940.307 50.5725C941.046 51.4599 941.194 52.5691 940.75 53.9002L883.956 214.521C883.661 215.408 883.069 216.074 882.182 216.517C881.442 217.109 880.629 217.405 879.741 217.405H871.089Z" fill="#2F2F2F"/>
<path d="M122.259 112.676C122.262 113.679 121.999 114.665 121.498 115.539C120.996 116.414 120.272 117.146 119.396 117.664L65.1086 150.21C64.1933 150.759 63.145 151.059 62.072 151.079C60.9989 151.098 59.94 150.836 59.0046 150.321C58.0782 149.813 57.3064 149.073 56.7687 148.176C56.2309 147.279 55.9467 146.258 55.9451 145.218V80.1338C55.9467 79.0936 56.2309 78.0725 56.7687 77.1756C57.3064 76.2788 58.0782 75.5384 59.0046 75.0308C59.94 74.5151 60.9989 74.2535 62.072 74.273C63.145 74.2925 64.1933 74.5923 65.1086 75.1415L119.396 107.687C120.272 108.206 120.996 108.938 121.498 109.812C121.999 110.686 122.262 111.673 122.259 112.676Z" fill="white"/>
</svg>
