<svg width="498" height="198" viewBox="0 0 498 198" fill="none" xmlns="http://www.w3.org/2000/svg">
<path d="M0.642045 154V8.54545H58.0284C69.0133 8.54545 78.3883 10.5104 86.1534 14.4403C93.9659 18.3229 99.9081 23.839 103.98 30.9886C108.099 38.0909 110.159 46.4479 110.159 56.0597C110.159 65.7187 108.076 74.0284 103.909 80.9886C99.7424 87.9015 93.7055 93.2045 85.7983 96.8977C77.9384 100.591 68.4214 102.438 57.2472 102.438H18.8239V77.7216H52.2756C58.1468 77.7216 63.0237 76.9167 66.9062 75.3068C70.7888 73.697 73.6771 71.2822 75.571 68.0625C77.5123 64.8428 78.483 60.8419 78.483 56.0597C78.483 51.2301 77.5123 47.1581 75.571 43.8438C73.6771 40.5294 70.7652 38.0199 66.8352 36.3153C62.9527 34.5634 58.0521 33.6875 52.1335 33.6875H31.3949V154H0.642045ZM79.1932 87.8068L115.344 154H81.3949L46.0256 87.8068H79.1932ZM131.324 154V44.9091H161.58V154H131.324ZM146.523 30.8466C142.025 30.8466 138.166 29.3551 134.946 26.3722C131.774 23.3419 130.188 19.7197 130.188 15.5057C130.188 11.339 131.774 7.7642 134.946 4.78125C138.166 1.75094 142.025 0.235788 146.523 0.235788C151.021 0.235788 154.856 1.75094 158.028 4.78125C161.248 7.7642 162.858 11.339 162.858 15.5057C162.858 19.7197 161.248 23.3419 158.028 26.3722C154.856 29.3551 151.021 30.8466 146.523 30.8466ZM234.964 197.182C225.163 197.182 216.758 195.832 209.751 193.134C202.79 190.482 197.251 186.86 193.131 182.267C189.012 177.674 186.337 172.513 185.106 166.784L213.089 163.02C213.941 165.198 215.29 167.234 217.137 169.128C218.984 171.022 221.422 172.537 224.452 173.673C227.53 174.857 231.271 175.449 235.674 175.449C242.255 175.449 247.677 173.839 251.938 170.619C256.247 167.447 258.401 162.12 258.401 154.639V134.682H257.123C255.797 137.712 253.808 140.577 251.157 143.276C248.505 145.974 245.096 148.176 240.93 149.881C236.763 151.585 231.791 152.438 226.015 152.438C217.824 152.438 210.366 150.544 203.643 146.756C196.967 142.92 191.64 137.073 187.663 129.213C183.733 121.306 181.768 111.315 181.768 99.2415C181.768 86.8835 183.78 76.5616 187.805 68.2756C191.829 59.9896 197.18 53.7869 203.856 49.6676C210.579 45.5483 217.942 43.4886 225.944 43.4886C232.052 43.4886 237.165 44.5303 241.285 46.6136C245.404 48.6496 248.719 51.2064 251.228 54.2841C253.785 57.3144 255.75 60.2973 257.123 63.233H258.259V44.9091H288.302V155.065C288.302 164.346 286.029 172.111 281.484 178.361C276.938 184.611 270.641 189.298 262.592 192.423C254.59 195.596 245.38 197.182 234.964 197.182ZM235.603 129.71C240.48 129.71 244.599 128.503 247.961 126.088C251.37 123.626 253.974 120.122 255.773 115.577C257.62 110.984 258.543 105.491 258.543 99.0994C258.543 92.7074 257.644 87.1676 255.844 82.4801C254.045 77.7453 251.441 74.0758 248.032 71.4716C244.623 68.8674 240.48 67.5653 235.603 67.5653C230.631 67.5653 226.441 68.9148 223.032 71.6136C219.623 74.2651 217.042 77.9583 215.29 82.6932C213.539 87.428 212.663 92.8968 212.663 99.0994C212.663 105.397 213.539 110.842 215.29 115.435C217.09 119.98 219.67 123.508 223.032 126.017C226.441 128.479 230.631 129.71 235.603 129.71ZM342.634 90.9318V154H312.379V8.54545H341.782V64.1562H343.06C345.522 57.7169 349.5 52.6742 354.992 49.0284C360.485 45.3352 367.374 43.4886 375.66 43.4886C383.236 43.4886 389.841 45.1458 395.475 48.4602C401.157 51.7273 405.56 56.4384 408.685 62.5938C411.858 68.7017 413.42 76.017 413.373 84.5398V154H383.117V89.9375C383.165 83.214 381.46 77.982 378.004 74.2415C374.594 70.5009 369.812 68.6307 363.657 68.6307C359.538 68.6307 355.892 69.5066 352.719 71.2585C349.594 73.0104 347.132 75.5672 345.333 78.929C343.581 82.2434 342.682 86.2443 342.634 90.9318ZM495.209 44.9091V67.6364H429.513V44.9091H495.209ZM444.428 18.7727H474.683V120.477C474.683 123.271 475.109 125.449 475.962 127.011C476.814 128.527 477.998 129.592 479.513 130.207C481.075 130.823 482.875 131.131 484.911 131.131C486.331 131.131 487.751 131.012 489.172 130.776C490.592 130.491 491.681 130.278 492.439 130.136L497.197 152.651C495.682 153.124 493.552 153.669 490.805 154.284C488.059 154.947 484.721 155.349 480.791 155.491C473.5 155.776 467.107 154.805 461.615 152.58C456.17 150.354 451.932 146.898 448.902 142.21C445.872 137.523 444.38 131.604 444.428 124.455V18.7727Z" fill="#2F2F2F"/>
</svg>
